<svg xmlns="http://www.w3.org/2000/svg" width="150" height="31" viewBox="0 0 150 31"><defs><linearGradient id="a" x1="95" x2="95" y1="20" y2="49.18" gradientUnits="userSpaceOnUse"><stop offset="0" stop-color="#ff382d"/><stop offset="1" stop-color="#ff2d8b"/></linearGradient></defs><path fill="url(#a)" d="M49.66 20v29.77H20V20zm-21.95 6.23l12.7 18.38 1.46-1.02-12.7-18.38zm51.47-1.57h1.49v19.7h-1.32L67.72 27.41v16.95h-1.49v-19.7h1.3L79.18 41.6zm19.6 5.62h1.43v14.08h-1.43v-3.18a6.77 6.77 0 0 1-6.05 3.49c-4 0-7.29-3.18-7.29-7.35a7.27 7.27 0 0 1 7.29-7.35c2.7 0 4.87 1.38 6.05 3.49zm-5.94 13.04a5.9 5.9 0 0 0 5.94-6 5.9 5.9 0 0 0-5.94-5.99 5.92 5.92 0 0 0-5.97 5.99c0 3.35 2.62 6 5.97 6zm13.77-9.35c0 3.77 8.53 1.55 8.53 6.7 0 2.31-2.03 4-5.04 4-2.81 0-4.67-1.33-5.34-3.13l1.21-.7c.5 1.52 2.02 2.48 4.13 2.48 1.97 0 3.63-.88 3.63-2.65 0-3.83-8.52-1.63-8.52-6.7 0-2.22 1.91-4 4.78-4 2.28 0 4.03 1.1 4.79 2.82l-1.19.67c-.59-1.46-2.05-2.13-3.6-2.13-1.83 0-3.38.95-3.38 2.64zm20.5-4a7.25 7.25 0 0 1 7.29 7.35 7.25 7.25 0 0 1-7.29 7.35 6.67 6.67 0 0 1-6.05-3.58v8.9h-1.4V30.28h1.4v3.27a6.67 6.67 0 0 1 6.05-3.58zm-.08 13.35a5.93 5.93 0 0 0 5.97-6 5.92 5.92 0 0 0-5.97-5.99 5.92 5.92 0 0 0-5.97 5.99c0 3.35 2.62 6 5.97 6zm24.27-13.04h1.44v14.08h-1.44v-3.18a6.77 6.77 0 0 1-6.05 3.49c-4 0-7.29-3.18-7.29-7.35a7.27 7.27 0 0 1 7.29-7.35c2.7 0 4.87 1.38 6.05 3.49zm-5.94 13.04a5.9 5.9 0 0 0 5.94-6 5.9 5.9 0 0 0-5.94-5.99 5.91 5.91 0 0 0-5.96 5.99c0 3.35 2.61 6 5.96 6zm18.22-.51l-5.68-12.53h-1.52l6.47 14.33-.31.76c-.87 2.05-2.31 3.46-4.19 3.29v1.33c2.42.19 4.5-1.64 5.57-4.34L170 30.28h-1.52z" transform="translate(-20 -20)"/></svg>