<svg id="Слой_1" xmlns="http://www.w3.org/2000/svg" xmlns:xlink="http://www.w3.org/1999/xlink" viewBox="0 0 20 20"><style>.st0{clip-path:url(#XMLID_17_)}.st1{clip-path:url(#XMLID_18_)}.st2{fill:#006}.st3{fill:#fff}.st4{fill:#c00}</style><defs><circle id="XMLID_1_" cx="10" cy="10" r="10"/></defs><clipPath id="XMLID_17_"><use xlink:href="#XMLID_1_" overflow="visible"/></clipPath><g class="st0"><defs><path id="XMLID_13_" d="M-3.4 0h26.8v20.1H-3.4z"/></defs><clipPath id="XMLID_18_"><use xlink:href="#XMLID_13_" overflow="visible"/></clipPath><g transform="translate(80) scale(.94)" class="st1"><path id="XMLID_12_" class="st2" d="M-95.9 0h42.8v21.4h-42.8V0z"/><path class="st3" d="M-95.9 0v2.4l38 19h4.8V19l-38-19h-4.8zm42.8 0v2.4l-38 19h-4.8V19l38-19h4.8z"/><path class="st3" d="M-78.1 0v21.4h7.1V0h-7.1zm-17.8 7.1v7.1h42.8V7.1h-42.8z"/><path class="st4" d="M-95.9 8.6v4.3h42.8V8.6h-42.8zM-76.6 0v21.4h4.3V0h-4.3zm-19.3 21.4l14.3-7.1h3.2l-14.3 7.1h-3.2zm0-21.4l14.3 7.1h-3.2l-11.1-5.5V0zm25.3 7.1L-56.3 0h3.2l-14.3 7.1h-3.2zm17.5 14.3l-14.3-7.1h3.2l11.1 5.5v1.6z"/></g></g></svg>