<svg xmlns="http://www.w3.org/2000/svg" width="32.275" height="30.469">
  <path fill="#c20724" d="M0 14.355l2.246-6.933c5.176 1.823 8.936 3.402 11.28 4.736-.62-5.892-.945-9.944-.977-12.158h7.08c-.1 3.223-.474 7.26-1.125 12.11C21.86 10.416 25.7 8.853 30.03 7.42l2.245 6.933c-4.134 1.368-8.186 2.28-12.158 2.735 1.986 1.725 4.785 4.8 8.4 9.228l-5.86 4.15c-1.89-2.57-4.12-6.07-6.69-10.497-2.41 4.59-4.525 8.09-6.348 10.5l-5.764-4.153c3.776-4.655 6.478-7.73 8.106-9.228-4.2-.815-8.187-1.726-11.963-2.736" font-size="100" font-family="arial"/>
</svg>
