<svg xmlns="http://www.w3.org/2000/svg" width="27.514" height="33.941">
  <defs>
    <clipPath id="a">
      <path d="M0 27.153h22.01V0H0v27.153z"/>
    </clipPath>
  </defs>
  <g clip-path="url(#a)" transform="matrix(1.25 0 0 -1.25 0 33.94)">
    <path fill="#ffffff" d="M10.996 7.054c-.223 0-.402.18-.402.4v9.022c0 .223.18.402.402.402.22 0 .4-.18.4-.402V7.453c0-.22-.18-.4-.4-.4"/>
    <path fill="none" stroke="#ffffff" stroke-width=".5" stroke-miterlimit="10" d="M10.996 7.054c-.223 0-.402.18-.402.4v9.022c0 .223.18.402.402.402.22 0 .4-.18.4-.402V7.453c0-.22-.18-.4-.4-.4z"/>
    <path fill="#ffffff" d="M10.996 7.054c-.105 0-.207.04-.285.117l-3.44 3.45c-.156.16-.156.41 0 .57.157.16.41.16.567 0L11 8.02l3.168 3.17c.158.158.41.158.57 0 .155-.154.155-.41 0-.564l-3.45-3.45c-.08-.076-.18-.115-.28-.115"/>
    <path fill="none" stroke="#ffffff" stroke-width=".5" stroke-miterlimit="10" d="M10.996 7.054c-.105 0-.207.04-.285.117l-3.44 3.45c-.156.16-.156.41 0 .57.157.16.41.16.567 0L11 8.02l3.168 3.17c.158.158.41.158.57 0 .155-.154.155-.41 0-.564l-3.45-3.45c-.08-.076-.18-.115-.28-.115z"/>
    <path fill="#ffffff" d="M19.742.25H2.25c-1.102 0-2 .894-2 2v22.632c0 1.102.898 2 2 2h12.703c.22 0 .4-.18.4-.398 0-.223-.18-.402-.4-.402H2.25c-.66 0-1.2-.54-1.2-1.2V2.25c0-.664.54-1.204 1.2-1.204h17.492c.66 0 1.2.54 1.2 1.204v17.668c0 .222.18.402.398.402.222 0 .402-.18.402-.402V2.246c0-1.102-.898-1.996-2-1.996"/>
    <path fill="none" stroke="#ffffff" stroke-width=".5" stroke-miterlimit="10" d="M19.742.25H2.25c-1.102 0-2 .894-2 2v22.632c0 1.102.898 2 2 2h12.703c.22 0 .4-.18.4-.398 0-.223-.18-.402-.4-.402H2.25c-.66 0-1.2-.54-1.2-1.2V2.25c0-.664.54-1.204 1.2-1.204h17.492c.66 0 1.2.54 1.2 1.204v17.668c0 .222.18.402.398.402.222 0 .402-.18.402-.402V2.246c0-1.102-.898-1.996-2-1.996z"/>
    <path fill="#ffffff" d="M21.34 19.52h-6.387c-.223 0-.402.18-.402.398v6.39c0 .223.18.403.41.403.22 0 .4-.18.4-.4v-5.99h5.988c.223 0 .403-.18.403-.4 0-.22-.18-.4-.402-.4"/>
    <path fill="none" stroke="#ffffff" stroke-width=".25" stroke-miterlimit="10" d="M21.34 19.52h-6.387c-.223 0-.402.18-.402.398v6.39c0 .223.18.403.41.403.22 0 .4-.18.4-.4v-5.99h5.988c.223 0 .403-.18.403-.4 0-.22-.18-.4-.402-.4z"/>
    <path fill="#ffffff" d="M21.486 19.666c-.102 0-.207.04-.285.12l-6.39 6.564c-.15.156-.14.41.01.566.16.152.42.15.57-.008l6.39-6.562c.155-.16.15-.414-.005-.567-.08-.08-.18-.12-.28-.12"/>
    <path fill="none" stroke="#ffffff" stroke-width=".25" stroke-miterlimit="10" d="M21.486 19.666c-.102 0-.207.04-.285.12l-6.39 6.564c-.15.156-.14.41.01.566.16.152.42.15.57-.008l6.39-6.562c.155-.16.15-.414-.005-.567-.08-.08-.18-.12-.28-.12z"/>
  </g>
</svg>
