<svg id="Слой_1" xmlns="http://www.w3.org/2000/svg" viewBox="0 0 40 35.9"><style>.st0{fill:#d24a43}</style><g id="XMLID_16_"><path id="XMLID_22_" class="st0" d="M36.1 19.3H2.8c-.4 0-.8-.3-.8-.8 0-.4.3-.8.8-.8h33.4c.4 0 .8.3.8.8-.1.4-.5.8-.9.8z"/></g><g id="XMLID_15_"><path id="XMLID_21_" class="st0" d="M28.2 28.8c-.2 0-.4-.1-.5-.2-.3-.3-.3-.8 0-1.1l9-9-9-9c-.3-.3-.3-.8 0-1.1s.8-.3 1.1 0l9.5 9.5c.3.3.3.8 0 1.1l-9.5 9.5c-.2.2-.4.3-.6.3z"/></g><g id="XMLID_14_"><path id="XMLID_20_" class="st0" d="M20.2 7.8H7.6c-.5 0-.8-.4-.8-.8s.3-.8.8-.8h12.7c.4 0 .7.4.7.8s-.3.8-.8.8z"/></g><g id="XMLID_13_"><path id="XMLID_19_" class="st0" d="M17.8 11.8c-.2 0-.4-.1-.5-.2-.3-.3-.3-.8 0-1.1L20.8 7l-3.5-3.5c-.3-.3-.3-.8 0-1.1s.8-.3 1.1 0l4 4c.3.3.3.8 0 1.1l-4 4c-.2.3-.4.3-.6.3z"/></g><g id="XMLID_9_"><path id="XMLID_18_" class="st0" d="M20.2 30.2H7.6c-.4 0-.8-.3-.8-.8s.3-.8.8-.8h12.7c.4 0 .8.3.8.8s-.4.8-.9.8z"/></g><g id="XMLID_8_"><path id="XMLID_17_" class="st0" d="M17.8 34.2c-.2 0-.4-.1-.5-.2-.3-.3-.3-.8 0-1.1l3.5-3.5-3.6-3.4c-.3-.3-.3-.8 0-1.1s.8-.3 1.1 0l4 4c.3.3.3.8 0 1.1l-4 4c-.1.2-.3.2-.5.2z"/></g></svg>