<svg id="Слой_1" xmlns="http://www.w3.org/2000/svg" viewBox="0 0 34.5 35.9"><style>.st0{fill:none;stroke:#d24a43;stroke-linecap:round;stroke-linejoin:round;stroke-miterlimit:10}.st1{fill:#d24a43}</style><path id="XMLID_45_" class="st0" d="M33.2 17.9H1.9"/><g id="XMLID_19_"><path id="XMLID_20_" class="st1" d="M7.1.8h3.4c1.6 0 2.7 1 2.7 2.5 0 1-.5 1.8-1.3 2.2 1 .3 1.7 1.3 1.7 2.5 0 1.8-1.3 2.8-3 2.8H7.1V.8zm3.4 4.4c1 0 1.7-.7 1.7-1.7s-.7-1.7-1.7-1.7H8.1v3.5h2.4zm.1 4.8c1.2 0 2-.8 2-1.9 0-1.2-.8-2-2-2H8.1V10h2.5z"/><path id="XMLID_40_" class="st1" d="M15.9.8h1v10h-1V.8z"/><path id="XMLID_42_" class="st1" d="M19.7.8h3.2c3 0 5 1.8 5 5s-2 5-5 5h-3.2V.8zm3.1 9.2c2.5 0 4.1-1.4 4.1-4.1 0-2.7-1.6-4.1-4.1-4.1h-2.1V10h2.1z"/></g><g id="XMLID_8_"><path id="XMLID_9_" class="st1" d="M8.4 24.9h1.1l3.7 10h-1L11 31.7H7l-1.1 3.2h-1l3.5-10zm2.2 6l-1.3-3.6c-.2-.5-.4-1.3-.4-1.3s-.2.8-.4 1.3l-1.3 3.6h3.4z"/><path id="XMLID_15_" class="st1" d="M14.7 33c.6.6 1.6 1.1 2.6 1.1 1.2 0 2-.7 2-1.7 0-2.5-5-1.9-5-5 0-1.6 1.4-2.7 3.1-2.7.9 0 2 .3 2.6 1l-.5.8c-.5-.5-1.4-.9-2.2-.9-1.1 0-2.1.6-2.1 1.7 0 2.4 5 1.8 5 5 0 1.5-1.1 2.7-3.1 2.7-1.2 0-2.3-.5-3.1-1.3l.7-.7z"/><path id="XMLID_17_" class="st1" d="M22.4 24.9h1v4.3h1.7l2.7-4.3h1.1l-3 4.7 3.2 5.2H28L25.1 30h-1.7v4.8h-1v-9.9z"/></g></svg>