<svg id="Слой_1" xmlns="http://www.w3.org/2000/svg" viewBox="0 0 45 42.4"><style>.st0{fill:#304c57}.st1{fill:#d55555}</style><g id="XMLID_8_"><path id="XMLID_25_" class="st0" d="M5.4 21.7h-.1c-.2 0-.3-.1-.4-.3L.5 14.9c-.2-.3-.1-.7.2-.9.3-.2.7-.1.8.2l4.1 6 6-4.1c.3-.2.7-.1.9.2.2.3.1.7-.2.9l-6.5 4.4c-.2 0-.3.1-.4.1zm0 0"/><path id="XMLID_17_" class="st0" d="M24.2 40.5c-6.5 0-12.5-3.2-16.1-8.6-.2-.3-.1-.7.2-.8.3-.2.7-.1.9.2 3.4 5 9 8 15.1 8 10 0 18.2-8.2 18.2-18.2S34.2 2.9 24.2 2.9 6 11 6 21.1c0 .3-.3.6-.6.6s-.6-.3-.6-.6c0-10.7 8.7-19.4 19.4-19.4s19.4 8.7 19.4 19.4-8.7 19.4-19.4 19.4zm0 0"/><path id="XMLID_9_" class="st1" d="M30 28.7c-.2 0-.4-.1-.5-.2l-5.9-7.1c-.1-.1-.1-.3-.1-.4V9.3c0-.3.3-.6.6-.6s.6.3.6.6v11.5l5.7 6.9c.2.3.2.6-.1.9 0 .1-.1.1-.3.1zm0 0"/></g></svg>