<svg id="Слой_1" xmlns="http://www.w3.org/2000/svg" viewBox="0 0 70 70"><style>.st0{fill:#fff}</style><g id="Forma_1_1_"><g id="XMLID_108_"><path id="XMLID_109_" class="st0" d="M25.9 44.3c2.3 0 4.5-.8 6.4-2.2.3-.2.9-1.1.1-2L26 33.7v-9.1c-.1-1.2-1.1-1.3-1.5-1.3-5.2.7-9.1 5.2-9.1 10.5 0 5.8 4.7 10.5 10.5 10.5zm-2.5-18v7.5c0 .7.3 1.3.7 1.8l5.3 5.3c-1.1.5-2.3.8-3.5.8-4.4 0-7.9-3.6-7.9-7.9 0-3.5 2.3-6.5 5.4-7.5zm10.8 12.4c.9.8 1.7.2 2-.1 1.4-1.9 2.2-4.1 2.2-6.4 0-5.3-3.9-9.8-9.1-10.5-.6-.1-1.4.3-1.5 1.3v8.6c0 .4.1.7.4.9l6 6.2zm-3.8-14c3.1 1.1 5.4 4.1 5.4 7.5 0 1.2-.3 2.4-.8 3.5l-4.5-4.6v-6.4zM58.8 3.9H13.2C9.8 3.9 7 6.7 7 10.1c0 2.4 1.4 4.5 3.4 5.5v35.5c0 .7.6 1.3 1.3 1.3h23v4.7l-6.4 6.4c-.5.5-.5 1.3 0 1.9.5.5 1.3.5 1.9 0l5.8-5.8 5.8 5.8c.8.7 1.6.3 1.9 0 .5-.5.5-1.3 0-1.9l-6.4-6.4v-4.7h23c.7 0 1.3-.6 1.3-1.3V15.5c2-1 3.3-3.1 3.3-5.5.1-3.3-2.7-6.1-6.1-6.1zm.2 45.9H13V16.2h46v33.6zm-.2-36.2H13.2c-2 0-3.5-1.6-3.5-3.5s1.6-3.5 3.5-3.5h45.6c2 0 3.5 1.6 3.5 3.5s-1.6 3.5-3.5 3.5zm-3.5 30.2c.7 0 1.3-.6 1.3-1.3v-19c0-.7-.6-1.3-1.3-1.3-.7 0-1.3.6-1.3 1.3v19c0 .7.5 1.3 1.3 1.3zm-5.7 0c.7 0 1.3-.6 1.3-1.3V28.1c0-.7-.6-1.3-1.3-1.3-.7 0-1.3.6-1.3 1.3v14.4c-.1.7.5 1.3 1.3 1.3zm-5.8 0c.7 0 1.3-.6 1.3-1.3v-11c0-.7-.6-1.3-1.3-1.3-.7 0-1.3.6-1.3 1.3v11c0 .7.6 1.3 1.3 1.3z"/></g></g></svg>