<svg id="Слой_1" xmlns="http://www.w3.org/2000/svg" viewBox="0 0 70 70"><style>.st0{fill:#fff}</style><g id="Forma_1_1_"><g id="XMLID_95_"><path id="XMLID_96_" class="st0" d="M40.4 19.2c.4 1.1 1.4.9 1.6.9.7-.2 1.1-.9.9-1.6L40 7.3c-.2-.7-.9-1.1-1.6-.9L27.1 9.3c-.7.2-1.1.9-.9 1.6.2.7.9 1.1 1.6.9l8.8-2.2L25.4 26l-3.8-9.2c-.1-.5-1.3-1.3-2.2-.3L5.2 35.1c-.4.6-.3 1.4.2 1.8.2.2 1.1.6 1.8-.2L20 19.8l3.9 9.4c.7 1.3 2 .7 2.2.2l12.2-18.1 2.1 7.9zm7.2 2.6c-8.5 0-17.5 2.5-17.5 7.2v23.5c0 4.7 9 7.2 17.5 7.2 8.7 0 17.5-2.5 17.5-7.2V29c0-4.7-8.8-7.2-17.5-7.2zm14.9 30.7c0 1.9-5.8 4.7-14.9 4.7s-14.9-2.8-14.9-4.7v-3.9c3.3 2.2 9.2 3.3 14.9 3.3 5.8 0 11.7-1.1 14.9-3.3v3.9zm0-7.8c0 1.9-5.8 4.7-14.9 4.7s-14.9-2.8-14.9-4.7v-3.9c3.3 2.2 9.2 3.3 14.9 3.3 5.8 0 11.7-1.1 14.9-3.3v3.9zm0-7.8c0 1.9-5.8 4.7-14.9 4.7s-14.9-2.8-14.9-4.7V33c3.3 2.2 9.2 3.3 14.9 3.3 5.8 0 11.7-1.1 14.9-3.3v3.9zm-14.9-3.2c-9.1 0-14.9-2.8-14.9-4.7s5.8-4.7 14.9-4.7 14.9 2.8 14.9 4.7c0 1.9-5.8 4.7-14.9 4.7zm3.2-4.7c-.5-.3-1.3-.5-2.6-.7v-1.7c.5.1.8.4.9.7l2-.1c-.1-.4-.5-.8-.9-1-.5-.3-1.2-.4-2-.5v-.4h-1.1v.4c-.9 0-1.6.2-2.2.6s-.9.6-.9 1c0 .5.2.9.7 1.2.5.3 1.2.6 2.3.7V31c-.3-.1-.5-.2-.8-.4-.2-.2-.4-.4-.5-.6l-2.1.1c.2.6.5 1 1.1 1.3.6.3 1.3.5 2.2.6v.8H48V32c1-.1 1.8-.3 2.4-.7.6-.4.9-.8.9-1.3.2-.4-.1-.7-.5-1zM47 28c-.3-.1-.6-.2-.8-.3-.2-.1-.3-.3-.3-.4 0-.2.1-.3.3-.5s.4-.2.7-.3V28zm2.2 2.8c-.2.2-.6.3-1 .3v-1.7c.5.1.8.2 1 .3.2.1.3.3.3.5 0 .3-.1.5-.3.6z"/></g></g></svg>