<svg id="Слой_1" xmlns="http://www.w3.org/2000/svg" viewBox="0 0 70 70"><style>.st0,.st1{fill:#fff}.st1{fill-rule:evenodd;clip-rule:evenodd}</style><g id="Forma_1"><g id="XMLID_103_"><path id="XMLID_104_" class="st0" d="M35.7 26.1c-9.4 0-19.3 2.8-19.3 8v26c0 5.2 10 8 19.3 8 9.6 0 19.3-2.7 19.3-8V34c.1-5.2-9.7-7.9-19.3-7.9zm16.5 34c0 2.1-6.4 5.2-16.5 5.2s-16.5-3.1-16.5-5.2v-4.4c3.6 2.4 10.2 3.7 16.5 3.7 6.4 0 12.9-1.2 16.5-3.6v4.3zm0-8.7c0 2.1-6.4 5.2-16.5 5.2s-16.5-3.1-16.5-5.2V47c3.6 2.4 10.2 3.7 16.5 3.7 6.4 0 12.9-1.2 16.5-3.6v4.3zm0-8.7c0 2.1-6.4 5.2-16.5 5.2s-16.5-3.1-16.5-5.2v-4.4c3.6 2.4 10.2 3.7 16.5 3.7 6.4 0 12.9-1.2 16.5-3.6v4.3zm-16.5-3.5c-10.1 0-16.5-3.1-16.5-5.2s6.4-5.2 16.5-5.2 16.5 3.1 16.5 5.2c0 2.2-6.4 5.2-16.5 5.2zm3.5-5.2c-.5-.3-1.5-.6-2.9-.8v-1.9c.6.1.9.4 1 .8l2.2-.2c-.1-.5-.5-.9-1-1.1s-1.3-.5-2.2-.5v-.5H35v.5c-1 .1-1.8.3-2.4.6-.6.4-.9.8-.9 1.3s.3 1 .8 1.3 1.4.6 2.5.8v2c-.3-.1-.6-.2-.9-.4-.3-.2-.4-.4-.5-.7l-2.3.1c.2.6.6 1.1 1.2 1.5.6.3 1.5.5 2.5.6v.9h1.3v-.9c1.1-.1 2-.3 2.7-.7.6-.4 1-.9 1-1.5 0-.5-.3-.9-.8-1.2zm-4.1-1.1c-.4-.1-.7-.2-.9-.4-.2-.1-.3-.3-.3-.5s.1-.4.3-.5c.2-.1.5-.3.8-.3v1.7zm2.3 3.1c-.3.2-.6.3-1.1.3v-1.9c.5.1.9.2 1.1.4s.3.3.3.5c.1.3 0 .6-.3.7z"/></g></g><g id="Forma_1_копия"><g id="XMLID_35_"><path id="XMLID_37_" class="st1" d="M33.7 7.7L25.4.3c-.5-.5-1.3-.4-1.7.1l-7.4 8.3c-.5.5-.4 1.3.1 1.7.5.5 1.3.4 1.7-.1l5.7-6.5v17.3l.6 1.1c1.3.7 1.9-.5 1.9-1V4.3l5.8 5.1c.9.7 1.6 0 1.7-.1.5-.4.4-1.2-.1-1.6z"/></g></g><g id="Forma_1_копия_2"><g id="XMLID_32_"><path id="XMLID_33_" class="st1" d="M54.1 13c-.1-.1-.8-.8-1.7-.1L46.6 18V1.2c0-.5-.6-1.7-1.9-1l-.6 1.1v17.2L38.4 12c-.4-.5-1.2-.6-1.7-.1s-.6 1.2-.1 1.7l7.4 8.3c.4.5 1.2.6 1.7.1l8.3-7.3c.5-.4.5-1.2.1-1.7z"/></g></g></svg>