<svg id="Forma_1_1_" xmlns="http://www.w3.org/2000/svg" viewBox="0 0 24.3 19.7"><style>.st0{fill:#fff}</style><path class="st0" d="M11.9 13.3c-.4.4-.4 1.1 0 1.6.2.2.5.3.8.3.3 0 .6-.1.8-.3l4.1-4.1c.1-.1.2-.2.2-.4.1-.1.1-.3.1-.4 0-.1 0-.3-.1-.4-.1-.1-.1-.3-.2-.4l-4.1-4.1c-.2-.2-.5-.3-.8-.3s-.6.1-.8.3c-.4.4-.4 1.1 0 1.6L14 8.9H1.1C.5 8.9 0 9.4 0 10c0 .6.5 1.1 1.1 1.1H14l-2.1 2.2zM18.8 0h-10c-2 0-3.7 1.7-3.7 3.7v3.2h.2c.2.3.5.5.9.5s.7-.2.9-.5h.2V3.7c0-.8.7-1.5 1.5-1.5h10c.8 0 1.5.7 1.5 1.5v12.6c0 .8-.7 1.5-1.5 1.5h-10c-.8 0-1.5-.7-1.5-1.5v-3.2h-.2c-.2-.3-.5-.5-.9-.5s-.7.2-.9.5h-.2v3.2c0 2.1 1.7 3.7 3.7 3.7h10c2.1 0 3.7-1.7 3.7-3.7V3.7c0-2-1.7-3.7-3.7-3.7z" id="Forma_1"/></svg>