<svg id="Слой_1" xmlns="http://www.w3.org/2000/svg" viewBox="0 0 40 40"><style>.st0{fill:#d24a43}.st1{fill:none;stroke:#d24a43;stroke-width:1.5;stroke-linecap:round;stroke-linejoin:round;stroke-miterlimit:10}</style><g id="XMLID_10_"><g id="XMLID_11_"><path id="XMLID_12_" class="st0" d="M16.7 31.7c-3.9 0-7.7-1.5-10.7-4.4C.1 21.5.1 11.9 6 6S21.4.1 27.3 6s5.9 15.4 0 21.3c-2.9 3-6.8 4.4-10.6 4.4zm0-28.5c-3.4 0-6.9 1.3-9.5 3.9-5.3 5.3-5.3 13.8 0 19s13.8 5.3 19 0c5.3-5.3 5.3-13.8 0-19-2.6-2.6-6.1-3.9-9.5-3.9z"/></g></g><path id="XMLID_2_" class="st1" d="M27 27l10.9 10.9"/><g id="XMLID_6_"><path id="XMLID_7_" class="st0" d="M13.6 20.4c.8.8 2.1 1.4 3.3 1.4 1.2 0 2.2-.7 2.2-1.9 0-2.6-6.3-2.2-6.3-6.1 0-1.8 1.4-3.2 3.4-3.5V8.6h1.3v1.7c1.1.1 2.2.5 3.1 1.3l-.9 1.4c-.7-.6-1.8-1.1-2.8-1.1-1.4 0-2.3.9-2.3 1.9 0 2.5 6.3 2 6.3 6.1 0 1.8-1.3 3.3-3.4 3.6v1.7h-1.3v-1.7c-1.3-.1-2.7-.7-3.6-1.6l1-1.5z"/></g></svg>