<svg id="Слой_1" xmlns="http://www.w3.org/2000/svg" viewBox="0 0 20 20"><style>.st0{fill:#fff}</style><path id="XMLID_50_" class="st0" d="M15.2 13.2c-.7-.6-1.5-.6-2.1 0l-1.5 1.5c-.1.1-.2.2-.4.1-.3-.2-.7-.3-1-.5-1.4-.9-2.6-2.1-3.7-3.4-.5-.6-1-1.3-1.3-2.1-.1-.2-.1-.3.1-.4l1.5-1.5c.7-.7.7-1.5 0-2.2-.5-.3-.8-.7-1.2-1.1L4.4 2.4c-.7-.6-1.5-.6-2.1 0L.8 3.9c-.5.4-.7 1-.8 1.6-.1 1 .2 2 .5 3 .7 2 1.8 3.7 3.2 5.3 1.8 2.2 4 3.9 6.6 5.1 1.1.6 2.3 1 3.6 1.1.9 0 1.7-.2 2.3-.9.4-.5.9-.9 1.4-1.4.7-.7.7-1.5 0-2.2-.8-.7-1.6-1.5-2.4-2.3zm0 0"/><path id="XMLID_45_" class="st0" d="M14.4 9.9l1.5-.3C15.7 8.3 15 7 14 6c-1.1-1.1-2.4-1.7-3.9-1.9l-.2 1.5c1.2.2 2.2.7 3 1.5.8.7 1.3 1.7 1.5 2.8zm0 0"/><path id="XMLID_42_" class="st0" d="M16.8 3.3C15 1.5 12.8.4 10.3.1l-.2 1.5c2.1.3 4.1 1.3 5.6 2.8 1.5 1.5 2.4 3.3 2.7 5.3l1.6-.3c-.4-2.3-1.5-4.5-3.2-6.1zm0 0"/></svg>