<svg id="Слой_1" xmlns="http://www.w3.org/2000/svg" viewBox="0 0 70 70"><style>.st0{fill:#fff}</style><g id="Forma_1"><g id="XMLID_10_"><path id="XMLID_13_" class="st0" d="M57.8 45.6c-7.6-6.1-10.3-3.4-13.5-.2l-.5.6c-.9.9-3.2-.3-4.5-1.2-2-1.3-4.6-3.5-7.6-6.5-9.2-9.2-8.2-11.6-7.7-12.1l.6-.6c3.2-3.1 5.9-5.9-.2-13.5-2.1-2.6-4.1-3.9-6.2-4-3-.2-5.3 2.3-7.3 4.4-.3.4-.7.7-1 1-2.2 2.2-2.2 7.1 0 13 2.4 6.5 7.3 13.6 13.6 19.9 6.3 6.3 13.4 11.2 19.9 13.6 3 1.1 5.7 1.7 7.9 1.7s4-.6 5.1-1.7c.3-.3.7-.6 1-1 2.1-2 4.5-4.3 4.4-7.3-.1-2-1.4-4-4-6.1zm-1.7 12.3c-.4.3-.7.7-1 1-1.7 1.7-6 1.5-11.1-.4-6.3-2.4-13.1-7.1-19.2-13.2-6.2-6.2-10.8-13-13.2-19.3-1.9-5.1-2.1-9.4-.4-11.1l1-1c1.7-1.8 3.7-3.9 5.8-3.9h.1c1.5.1 3.2 1.2 4.9 3.3 5.1 6.3 3.3 8.1.3 11.1l-.6.6c-2.4 2.4.1 7.1 7.7 14.7 3.1 3.1 5.7 5.4 7.9 6.8 3.1 2 5.4 2.3 6.8.9l.6-.6c2.9-3 4.7-4.8 11.1.3 2.1 1.7 3.2 3.3 3.3 4.9 0 2.1-2.1 4.1-4 5.9zM42.7 27l.1.1s.1 0 .1.1c.1 0 .1.1.2.1s.2.1.3.1h13.3c.5 0 .9-.4.9-.9s-.4-.9-.9-.9H45.6L61.5 9.7c.4-.4.4-.9 0-1.3s-.9-.4-1.3 0l-15.9 16V13.2c0-.5-.4-.9-.9-.9s-.9.4-.9.9v13.3c0 .1 0 .2.1.3 0 .2.1.2.1.2z"/></g><g id="XMLID_2_"><path id="XMLID_3_" class="st0" d="M57.8 45.6c-7.6-6.1-10.3-3.4-13.5-.2l-.5.6c-.9.9-3.2-.3-4.5-1.2-2-1.3-4.6-3.5-7.6-6.5-9.2-9.2-8.2-11.6-7.7-12.1l.6-.6c3.2-3.1 5.9-5.9-.2-13.5-2.1-2.6-4.1-3.9-6.2-4-3-.2-5.3 2.3-7.3 4.4-.3.4-.7.7-1 1-2.2 2.2-2.2 7.1 0 13 2.4 6.5 7.3 13.6 13.6 19.9 6.3 6.3 13.4 11.2 19.9 13.6 3 1.1 5.7 1.7 7.9 1.7s4-.6 5.1-1.7c.3-.3.7-.6 1-1 2.1-2 4.5-4.3 4.4-7.3-.1-2-1.4-4-4-6.1zm-1.7 12.3c-.4.3-.7.7-1 1-1.7 1.7-6 1.5-11.1-.4-6.3-2.4-13.1-7.1-19.2-13.2-6.2-6.2-10.8-13-13.2-19.3-1.9-5.1-2.1-9.4-.4-11.1l1-1c1.7-1.8 3.7-3.9 5.8-3.9h.1c1.5.1 3.2 1.2 4.9 3.3 5.1 6.3 3.3 8.1.3 11.1l-.6.6c-2.4 2.4.1 7.1 7.7 14.7 3.1 3.1 5.7 5.4 7.9 6.8 3.1 2 5.4 2.3 6.8.9l.6-.6c2.9-3 4.7-4.8 11.1.3 2.1 1.7 3.2 3.3 3.3 4.9 0 2.1-2.1 4.1-4 5.9zM42.7 27l.1.1s.1 0 .1.1c.1 0 .1.1.2.1s.2.1.3.1h13.3c.5 0 .9-.4.9-.9s-.4-.9-.9-.9H45.6L61.5 9.7c.4-.4.4-.9 0-1.3s-.9-.4-1.3 0l-15.9 16V13.2c0-.5-.4-.9-.9-.9s-.9.4-.9.9v13.3c0 .1 0 .2.1.3 0 .2.1.2.1.2z"/></g></g></svg>