<svg xmlns="http://www.w3.org/2000/svg" viewBox="0 0 21 21"><style>.st0{enable-background:new}.st1{fill:#365160}</style><g id="Эллипс_2_1_" class="st0"><path class="st1" d="M10.5 1c5.2 0 9.5 4.3 9.5 9.5S15.7 20 10.5 20 1 15.7 1 10.5 5.3 1 10.5 1m0-1C4.7 0 0 4.7 0 10.5S4.7 21 10.5 21 21 16.3 21 10.5 16.3 0 10.5 0z" id="Эллипс_2"/></g><path class="st0 st1" d="M9.4 13.3c-.1 0-.3 0-.3-.1L5.5 9.7c-.2-.2-.2-.5 0-.7.2-.2.5-.2.7 0l3.1 3.1 5.5-5.3c.2-.2.5-.2.7 0 .2.2.2.5 0 .7l-5.9 5.6c0 .1-.1.2-.2.2z" id="Фигура_12_1_"/></svg>