<svg id="Слой_1" xmlns="http://www.w3.org/2000/svg" viewBox="0 0 70 70"><style>.st0{fill:#fff}</style><g id="Forma_1"><g id="XMLID_108_"><path id="XMLID_109_" class="st0" d="M13.7 45.8c5.8 5.8 13.3 8.6 20.9 8.6s15.1-2.9 20.9-8.6l1.3-1.3c.8-.7 2-3.2 0-5.3l-1.3-1.3c-11.5-11.5-30.2-11.5-41.8 0l-1.3 1.3c-2.1 2.3-.7 4.6 0 5.3l1.3 1.3zm.5-4.9l1.3-1.3c5.3-5.3 12.2-7.9 19.1-7.9s13.8 2.6 19.1 7.9l1.3 1.3c.7.7.2 1.5 0 1.8L53.7 44C43.2 54.5 26 54.5 15.5 44l-1.3-1.3c-.2-.2-.7-1 0-1.8zM62.8 6.7H6.5c-.7 0-1.2.6-1.2 1.2v56.3c0 .7.6 1.2 1.2 1.2h56.3c.7 0 1.2-.6 1.2-1.2V7.9c0-.7-.5-1.2-1.2-1.2zM61.5 63H7.7V20.6h53.8V63zm0-44.9H7.7v-9h53.8v9zm-50-3.2h3.7c.7 0 1.2-.6 1.2-1.2s-.6-1.2-1.2-1.2h-3.7c-.7 0-1.2.6-1.2 1.2s.5 1.2 1.2 1.2zm9.7 0h3.7c.7 0 1.2-.6 1.2-1.2s-.6-1.2-1.2-1.2h-3.7c-.7 0-1.2.6-1.2 1.2s.5 1.2 1.2 1.2zm9.7 0h3.7c.7 0 1.2-.6 1.2-1.2s-.6-1.2-1.2-1.2h-3.7c-.7 0-1.2.6-1.2 1.2s.5 1.2 1.2 1.2zm3.7 34.9c4.4 0 8-3.6 8-8s-3.6-8-8-8-8 3.6-8 8 3.6 8 8 8zm0-13.5c3 0 5.5 2.5 5.5 5.5s-2.5 5.5-5.5 5.5-5.5-2.5-5.5-5.5 2.5-5.5 5.5-5.5z"/></g></g></svg>