<svg id="SvgjsSvg1000" xmlns="http://www.w3.org/2000/svg" version="1.1" xmlns:xlink="http://www.w3.org/1999/xlink" xmlns:svgjs="http://svgjs.com/svgjs" width="14" height="14"><defs id="SvgjsDefs1001"></defs><path id="SvgjsPath1007" d="M881 910C877.134 910 874 913.134 874 917C874 920.865 877.134 924 881 924C884.866 924 888 920.865 888 917C888 913.134 884.866 910 881 910ZM881.369 916.973L884.328 920.144L883.762 920.724L880.185 917.541L880.1199999999999 917.041L880.3749999999999 912.258L881.1179999999999 912.258ZM881 922.833C877.778 922.833 875.166 920.221 875.166 917C875.166 913.778 877.778 911.166 881 911.166C884.221 911.166 886.833 913.778 886.833 917C886.833 920.221 884.221 922.833 881 922.833Z " fill="#9b9b9b" transform="matrix(1,0,0,1,-874,-910)"></path></svg>