<svg xmlns="http://www.w3.org/2000/svg" viewBox="0 0 220.27 220.26">
  <path fill="#e8072a" d="M110.13 134.42a24.28 24.28 0 1 0-24.28-24.29 24.31 24.31 0 0 0 24.28 24.29zm0-39a14.68 14.68 0 1 1-14.68 14.68 14.7 14.7 0 0 1 14.68-14.68zm0 0"/>
  <path fill="#e8072a" d="M215.47 105.33h-19a86.56 86.56 0 0 0-81.51-81.51V4.8a4.8 4.8 0 1 0-9.6 0v23.68a4.8 4.8 0 0 0 4.8 4.8A76.78 76.78 0 1 1 77 40.77a4.8 4.8 0 1 0-4.14-8.66 86.41 86.41 0 0 0-49 73.22H4.8a4.8 4.8 0 1 0 0 9.6h19a86.56 86.56 0 0 0 81.51 81.51v19a4.8 4.8 0 0 0 9.6 0v-19a86.56 86.56 0 0 0 81.51-81.51h19a4.8 4.8 0 0 0 0-9.6zm0 0"/>
</svg>