<svg xmlns="http://www.w3.org/2000/svg" viewBox="0 0 249 251">
    <path fill="#c7102d" d="M237.1 219.3c-2.6 0-4.8 2.2-4.8 4.8v9.1H15.6v-32h221.5c2.6 0 4.8-2.2 4.8-4.8 0-2.7-2.2-4.8-4.8-4.8H10.8c-2.7 0-4.8 2.1-4.8 4.8V238c0 2.6 2.1 4.8 4.8 4.8h226.3c2.6 0 4.8-2.2 4.8-4.8v-13.9c0-2.6-2.2-4.8-4.8-4.8zm0 0M120.5 169.8c.9.9 2.1 1.4 3.4 1.4 1.3 0 2.5-.5 3.4-1.4l61.1-61.1c1.9-1.9 1.9-4.9 0-6.8s-4.9-1.9-6.8 0l-57.7 57.7-57.7-57.7c-1.9-1.9-4.9-1.9-6.8 0s-1.9 4.9 0 6.8l61.1 61.1zm0 0" />
    <path fill="#c7102d" d="M123.9 144.1c2.7 0 4.8-2.1 4.8-4.8V11.8c0-2.7-2.1-4.8-4.8-4.8-2.6 0-4.8 2.1-4.8 4.8v127.5c0 2.7 2.2 4.8 4.8 4.8zm0 0" />
</svg>
