<svg xmlns="http://www.w3.org/2000/svg" viewBox="0 0 242.9 249">
    <path fill="#c7102d" d="M235.1 5H8.8C6.1 5 4 7.1 4 9.8v226.3c0 2.6 2.1 4.8 4.8 4.8h192.3c2.7 0 4.8-2.2 4.8-4.8 0-2.7-2.1-4.8-4.8-4.8H13.6V14.6h216.7v221.5c0 2.6 2.1 4.8 4.8 4.8 2.6 0 4.8-2.2 4.8-4.8V9.8c0-2.7-2.2-4.8-4.8-4.8zm0 0" />
    <path fill="#c7102d" d="M56.7 54.9c-10.1 0-18.4 8.3-18.4 18.4 0 10.1 8.3 18.4 18.4 18.4 10.1 0 18.4-8.3 18.4-18.4 0-10.1-8.3-18.4-18.4-18.4zm0 27.2c-4.9 0-8.8-3.9-8.8-8.8s3.9-8.8 8.8-8.8 8.8 3.9 8.8 8.8-4 8.8-8.8 8.8zm0 0M201.5 68.5h-112c-2.7 0-4.8 2.2-4.8 4.8 0 2.7 2.1 4.8 4.8 4.8h112c2.6 0 4.8-2.1 4.8-4.8 0-2.6-2.2-4.8-4.8-4.8zm0 0M56.7 104.5c-2.7 0-4.8 2.2-4.8 4.8 0 2.7 2.1 4.8 4.8 4.8 4.9 0 8.8 3.9 8.8 8.8s-3.9 8.8-8.8 8.8-8.8-4-8.8-8.8c0-2.7-2.1-4.8-4.8-4.8-2.6 0-4.8 2.1-4.8 4.8 0 10.1 8.3 18.4 18.4 18.4 10.1 0 18.4-8.3 18.4-18.4 0-10.1-8.3-18.4-18.4-18.4zm0 0M201.5 118.1h-112c-2.7 0-4.8 2.1-4.8 4.8 0 2.6 2.1 4.8 4.8 4.8h112c2.6 0 4.8-2.2 4.8-4.8 0-2.6-2.2-4.8-4.8-4.8zm0 0M56.7 154.1c-10.1 0-18.4 8.3-18.4 18.4 0 10.1 8.3 18.4 18.4 18.4 10.1 0 18.4-8.3 18.4-18.4 0-10.1-8.3-18.4-18.4-18.4zm0 27.2c-4.9 0-8.8-3.9-8.8-8.8s3.9-8.8 8.8-8.8 8.8 3.9 8.8 8.8-4 8.8-8.8 8.8zm0 0M201.5 167.7h-112c-2.7 0-4.8 2.1-4.8 4.8 0 2.7 2.1 4.8 4.8 4.8h112c2.6 0 4.8-2.1 4.8-4.8 0-2.6-2.2-4.8-4.8-4.8zm0 0" />
</svg>
