<svg data-name="Capa 1" xmlns="http://www.w3.org/2000/svg" viewBox="0 0 164.07 283.69">
    <title>dollar</title>
    <path fill="#c7102d" d="M74.84 254.6c-33.34-2-58.5-15.69-74.84-34.32l16-20.59a92.44 92.44 0 0 0 58.83 30.72v-79.74c-33.34-9.15-68-20.26-68-60.46 0-34 28.43-57.85 68-60.14V0h19.94v30.4c27.13 2.61 48.37 13.07 64.38 29.74l-16.33 19.93a80 80 0 0 0-48-24.84v70.92c33.67 9.49 69.25 22.23 69.25 64.69 0 29.74-19 59.81-69.29 63.73v29.09H74.84V254.6zm0-133.67V54.26c-23.53 1.63-39.87 15-39.87 34.32 0 18.26 17.65 25.81 39.87 32.35zm19.94 35.3v74.19c31-3.27 41.18-21.9 41.18-37.26 0-21.25-18.3-30.07-41.18-36.93z" />
</svg>
