<svg id="Слой_0_Слой_1_Изображение" data-name="Слой 0 + Слой 1 Изображение" xmlns="http://www.w3.org/2000/svg" viewBox="0 0 38.71 38.98">
    <title>door</title>
    <path fill="#c7102d" d="M29.5 3.9a1.11 1.11 0 0 1 .79 1.28v11.07a1.92 1.92 0 0 1 0 .48.74.74 0 0 1-.83.62.71.71 0 0 1-.61-.79v-4.61-6-.42H7.25c.2.13.34.23.48.31 2.92 1.66 5.84 3.33 8.78 5a1.08 1.08 0 0 1 .62 1.05v22.59h11.15a.42.42 0 0 0 .52-.48v-8.06a1.12 1.12 0 0 1 .08-.63 1 1 0 0 1 .67-.39 1.18 1.18 0 0 1 .64.5 1 1 0 0 1 .1.55v8.94A1 1 0 0 1 29.21 36H17.16v5.85a1 1 0 0 1-.65 1.07h-.3l-.51-.31Q10 39.3 4.22 36.06a1.62 1.62 0 0 1-.85-.8V4.69a1.11 1.11 0 0 1 .8-.8H29.5zM15.61 40.79v-.36-28.07a.54.54 0 0 0-.33-.54l-10-5.64A2.17 2.17 0 0 0 5 6.06v28.35a.56.56 0 0 0 .33.55l7.13 4z" transform="translate(-3.37 -3.9)" />
    <path fill="#c7102d" d="M42.08 21.35l-4.42 4.46c-.42.42-.83.84-1.25 1.25a.74.74 0 0 1-1.12.09.8.8 0 0 1 .07-1.15q1.82-1.84 3.66-3.66a4.64 4.64 0 0 1 .42-.34l-.06-.15H21.94a2 2 0 0 1-.56-.07.69.69 0 0 1-.54-.78.71.71 0 0 1 .74-.62h17.93l-.44-.46-3.69-3.72c-.51-.51-.38-1.2.28-1.31a1.14 1.14 0 0 1 .82.34c1.88 1.85 3.73 3.72 5.59 5.59v.53z" transform="translate(-3.37 -3.9)" />
</svg>
