<?xml version="1.0" encoding="UTF-8" standalone="no"?>
<!-- Created with Inkscape (http://www.inkscape.org/) -->

<svg
   xmlns:dc="http://purl.org/dc/elements/1.1/"
   xmlns:cc="http://creativecommons.org/ns#"
   xmlns:rdf="http://www.w3.org/1999/02/22-rdf-syntax-ns#"
   xmlns:svg="http://www.w3.org/2000/svg"
   xmlns="http://www.w3.org/2000/svg"
   xmlns:sodipodi="http://sodipodi.sourceforge.net/DTD/sodipodi-0.dtd"
   xmlns:inkscape="http://www.inkscape.org/namespaces/inkscape"
   id="svg2"
   version="1.1"
   inkscape:version="0.48.4 r9939"
   width="27.51425"
   height="33.941"
   xml:space="preserve"
   sodipodi:docname="Векторный смарт-объект9.ai"><metadata
     id="metadata8"><rdf:RDF><cc:Work
         rdf:about=""><dc:format>image/svg+xml</dc:format><dc:type
           rdf:resource="http://purl.org/dc/dcmitype/StillImage" /><dc:title></dc:title></cc:Work></rdf:RDF></metadata><defs
     id="defs6"><clipPath
       clipPathUnits="userSpaceOnUse"
       id="clipPath16"><path
         d="m 0,27.153 22.011,0 L 22.011,0 0,0 0,27.153 z"
         id="path18" /></clipPath></defs><sodipodi:namedview
     pagecolor="#ffffff"
     bordercolor="#666666"
     borderopacity="1"
     objecttolerance="10"
     gridtolerance="10"
     guidetolerance="10"
     inkscape:pageopacity="0"
     inkscape:pageshadow="2"
     inkscape:window-width="640"
     inkscape:window-height="480"
     id="namedview4"
     showgrid="false"
     inkscape:zoom="6.953242"
     inkscape:cx="13.757125"
     inkscape:cy="16.970501"
     inkscape:window-x="65"
     inkscape:window-y="24"
     inkscape:window-maximized="0"
     inkscape:current-layer="g10" /><g
     id="g10"
     inkscape:groupmode="layer"
     inkscape:label="Векторный смарт-объект9"
     transform="matrix(1.25,0,0,-1.25,0,33.941)"><g
       id="g12"><g
         id="g14"
         clip-path="url(#clipPath16)"><g
           id="g20"
           transform="translate(10.996,7.054)"><path
             d="m 0,0 c -0.223,0 -0.402,0.18 -0.402,0.399 l 0,9.023 c 0,0.223 0.179,0.402 0.402,0.402 0.219,0 0.399,-0.179 0.399,-0.402 l 0,-9.023 C 0.399,0.18 0.219,0 0,0"
             style="fill:#c7102d;fill-opacity:1;fill-rule:nonzero;stroke:none"
             id="path22" /></g><g
           id="g24"
           transform="translate(10.996,7.054)"><path
             d="m 0,0 c -0.223,0 -0.402,0.18 -0.402,0.399 l 0,9.023 c 0,0.223 0.179,0.402 0.402,0.402 0.219,0 0.399,-0.179 0.399,-0.402 l 0,-9.023 C 0.399,0.18 0.219,0 0,0 z"
             style="fill:none;stroke:#c7102d;stroke-opacity:1;stroke-width:0.5;stroke-linecap:butt;stroke-linejoin:miter;stroke-miterlimit:10;stroke-dasharray:none"
             id="path26" /></g><g
           id="g28"
           transform="translate(10.996,7.054)"><path
             d="m 0,0 c -0.105,0 -0.207,0.039 -0.285,0.117 l -3.449,3.45 c -0.157,0.156 -0.157,0.41 0,0.566 0.156,0.156 0.41,0.156 0.566,0 l 3.164,-3.168 3.168,3.168 c 0.156,0.156 0.41,0.156 0.567,0 0.156,-0.156 0.156,-0.41 0,-0.566 L 0.281,0.117 C 0.203,0.039 0.102,0 0,0"
             style="fill:#c7102d;fill-opacity:1;fill-rule:nonzero;stroke:none"
             id="path30" /></g><g
           id="g32"
           transform="translate(10.996,7.054)"><path
             d="m 0,0 c -0.105,0 -0.207,0.039 -0.285,0.117 l -3.449,3.45 c -0.157,0.156 -0.157,0.41 0,0.566 0.156,0.156 0.41,0.156 0.566,0 l 3.164,-3.168 3.168,3.168 c 0.156,0.156 0.41,0.156 0.567,0 0.156,-0.156 0.156,-0.41 0,-0.566 L 0.281,0.117 C 0.203,0.039 0.102,0 0,0 z"
             style="fill:none;stroke:#c7102d;stroke-opacity:1;stroke-width:0.5;stroke-linecap:butt;stroke-linejoin:miter;stroke-miterlimit:10;stroke-dasharray:none"
             id="path34" /></g><g
           id="g36"
           transform="translate(19.742,0.25)"><path
             d="m 0,0 -17.492,0 c -1.102,0 -2,0.894 -2,2 l 0,22.632 c 0,1.102 0.898,2 2,2 l 12.703,0 c 0.219,0 0.399,-0.179 0.399,-0.398 0,-0.223 -0.18,-0.402 -0.399,-0.402 l -12.703,0 c -0.66,0 -1.199,-0.539 -1.199,-1.2 l 0,-22.632 c 0,-0.664 0.539,-1.204 1.199,-1.204 L 0,0.796 c 0.66,0 1.199,0.54 1.199,1.204 l 0,17.668 c 0,0.222 0.18,0.402 0.399,0.402 C 1.82,20.07 2,19.89 2,19.668 L 2,1.996 C 2,0.894 1.102,0 0,0"
             style="fill:#c7102d;fill-opacity:1;fill-rule:nonzero;stroke:none"
             id="path38" /></g><g
           id="g40"
           transform="translate(19.742,0.25)"><path
             d="m 0,0 -17.492,0 c -1.102,0 -2,0.894 -2,2 l 0,22.632 c 0,1.102 0.898,2 2,2 l 12.703,0 c 0.219,0 0.399,-0.179 0.399,-0.398 0,-0.223 -0.18,-0.402 -0.399,-0.402 l -12.703,0 c -0.66,0 -1.199,-0.539 -1.199,-1.2 l 0,-22.632 c 0,-0.664 0.539,-1.204 1.199,-1.204 L 0,0.796 c 0.66,0 1.199,0.54 1.199,1.204 l 0,17.668 c 0,0.222 0.18,0.402 0.399,0.402 C 1.82,20.07 2,19.89 2,19.668 L 2,1.996 C 2,0.894 1.102,0 0,0 z"
             style="fill:none;stroke:#c7102d;stroke-opacity:1;stroke-width:0.5;stroke-linecap:butt;stroke-linejoin:miter;stroke-miterlimit:10;stroke-dasharray:none"
             id="path42" /></g><g
           id="g44"
           transform="translate(21.34,19.519)"><path
             d="M 0,0 -6.387,0 C -6.61,0 -6.789,0.18 -6.789,0.399 l 0,6.39 c 0,0.223 0.179,0.403 0.402,0.403 0.219,0 0.399,-0.18 0.399,-0.403 l 0,-5.988 5.988,0 c 0.222,0 0.402,-0.18 0.402,-0.399 C 0.402,0.18 0.222,0 0,0"
             style="fill:#c7102d;fill-opacity:1;fill-rule:nonzero;stroke:none"
             id="path46" /></g><g
           id="g48"
           transform="translate(21.34,19.519)"><path
             d="M 0,0 -6.387,0 C -6.61,0 -6.789,0.18 -6.789,0.399 l 0,6.39 c 0,0.223 0.179,0.403 0.402,0.403 0.219,0 0.399,-0.18 0.399,-0.403 l 0,-5.988 5.988,0 c 0.222,0 0.402,-0.18 0.402,-0.399 C 0.402,0.18 0.222,0 0,0 z"
             style="fill:none;stroke:#c7102d;stroke-opacity:1;stroke-width:0.25;stroke-linecap:butt;stroke-linejoin:miter;stroke-miterlimit:10;stroke-dasharray:none"
             id="path50" /></g><g
           id="g52"
           transform="translate(21.4858,19.6659)"><path
             d="m 0,0 c -0.102,0 -0.207,0.039 -0.285,0.121 l -6.391,6.563 c -0.152,0.156 -0.148,0.41 0.008,0.566 0.16,0.152 0.414,0.149 0.566,-0.008 L 0.289,0.68 C 0.441,0.52 0.437,0.266 0.281,0.113 0.203,0.039 0.101,0 0,0"
             style="fill:#c7102d;fill-opacity:1;fill-rule:nonzero;stroke:none"
             id="path54" /></g><g
           id="g56"
           transform="translate(21.4858,19.6659)"><path
             d="m 0,0 c -0.102,0 -0.207,0.039 -0.285,0.121 l -6.391,6.563 c -0.152,0.156 -0.148,0.41 0.008,0.566 0.16,0.152 0.414,0.149 0.566,-0.008 L 0.289,0.68 C 0.441,0.52 0.437,0.266 0.281,0.113 0.203,0.039 0.101,0 0,0 z"
             style="fill:none;stroke:#c7102d;stroke-opacity:1;stroke-width:0.25;stroke-linecap:butt;stroke-linejoin:miter;stroke-miterlimit:10;stroke-dasharray:none"
             id="path58" /></g></g></g></g></svg>