<svg xmlns="http://www.w3.org/2000/svg" viewBox="0 0 48 50.1">
    <path fill="#c7102d" d="M47.2 45.5V14.3h-9.6v31.2h-2.4V20.7h-9.6v24.8h-2.4V27.1h-9.6v18.4h-2.4V34.3H1.6v11.2H.8c-.4 0-.8.4-.8.8s.4.8.8.8h46.4c.4 0 .8-.4.8-.8s-.4-.8-.8-.8zm-44 0v-9.6h6.4v9.6H3.2zm12 0V28.7h6.4v16.8h-6.4zm12 0V22.3h6.4v23.2h-6.4zm12 0V15.9h6.4v29.6h-6.4zm0 0M6.4 23.4c.1 0 .3 0 .4-.1l29-16.7-1.8 4c-.2.4 0 .9.4 1.1.1 0 .2.1.3.1.3 0 .6-.2.7-.5L38.2 5v-.1-.1-.1-.1-.1-.1-.1-.1l-.1-.1L38 4l-.1-.1h-.1-.1-.1-.1l-6.8-.7c-.4 0-.8.3-.9.7 0 .4.3.8.7.9l4.5.3L6 21.9c-.4.2-.5.7-.3 1.1.2.2.4.4.7.4zm0 0" />
</svg>
