<svg xmlns="http://www.w3.org/2000/svg" viewBox="0 0 203.079 203.079">
    <path fill="#c7102d" d="M192.23 104.082V102c0-12.407-10.093-22.5-22.5-22.5-2.8 0-5.483.52-7.96 1.46C159.665 70.72 150.583 63 139.73 63c-2.946 0-5.76.575-8.34 1.61C128.667 55.162 119.624 48 109.23 48c-2.797 0-5.495.54-8 1.516V22.5c0-12.407-10.093-22.5-22.5-22.5s-22.5 10.093-22.5 22.5v66.26c-3.937-5.03-8.672-9.413-14.168-11.672-6.133-2.52-12.587-2.22-18.667.872-11.182 5.686-15.792 19.39-10.277 30.548l27.95 56.563c.79 1.553 19.73 38.01 54.023 38.01h40c31.54 0 57.2-25.795 57.2-57.507l-.03-41.49h-.03zm-57.138 83.997h-40c-24.702 0-40.09-28.74-40.646-29.797l-27.88-56.42c-1.924-3.893-.33-8.52 3.63-10.532 2.18-1.11 4.08-1.222 6.157-.37 8.28 3.394 16.41 19.755 19.586 29.264l2.41 7.26 12.882-4.56V22.5c0-4.136 3.364-7.5 7.5-7.5s7.5 3.364 7.5 7.5V109h15.136V71c0-4.187 3.748-8 7.864-8 4.262 0 8 3.505 8 7.5v41h15v-26c0-4.136 3.364-7.5 7.5-7.5s7.5 3.364 7.5 7.5v33h15V102c0-4.136 3.364-7.5 7.5-7.5s7.5 3.364 7.5 7.5v10.727h.035l.025 32.852c0 23.434-18.932 42.5-42.2 42.5z" />
</svg>
