<svg data-name="Слой 1" xmlns="http://www.w3.org/2000/svg" viewBox="0 0 159.36 211.08">
    <title>Векторный смарт-объект7</title>
    <path fill="#c7102d" d="M157.96 59.29a4.81 4.81 0 0 0 0-6.79l-51.1-51.09a4.8 4.8 0 0 0-6.79 6.79l47.7 47.7-47.7 47.7a4.8 4.8 0 1 0 6.79 6.79zm0 0" />
    <path fill="#c7102d" d="M137.27 55.9a4.8 4.8 0 0 0-4.8-4.8H4.98a4.8 4.8 0 1 0 0 9.6h127.54a4.8 4.8 0 0 0 4.8-4.8zm0 0M1.4 151.79a4.81 4.81 0 0 0 0 6.79l51.1 51.09a4.8 4.8 0 0 0 6.79-6.79l-47.7-47.7 47.7-47.7a4.8 4.8 0 0 0-6.79-6.79zm0 0" />
    <path fill="#c7102d" d="M20.03 155.19a4.8 4.8 0 0 0 4.8 4.8h127.54a4.8 4.8 0 1 0 0-9.6H24.83a4.8 4.8 0 0 0-4.8 4.8zm0 0" />
</svg>
