<svg data-name="Слой 0 Изображение" xmlns="http://www.w3.org/2000/svg" viewBox="0 0 385.99 386.47">
    <title>lin</title>
    <path fill="#c7102d" d="M124.51 224.71l35.86-29.69c40.77 42.08 60.75 42.08 104.4-1.71 19.54-19.61 39.78-38.72 57.49-59.9 18.39-22 16.37-46.38-3.48-66.32s-43.25-20.38-66.69-4.08c-36.06 25.11-36.11 25-92.95 17.9 24.89-23.11 45.29-46.34 69.79-63.84 39.61-28.28 94.95-20.15 128.38 15 34.39 36.11 39.34 93.06 6.74 131.43-28.18 33.17-59.14 64.74-92.69 92.38-46.98 38.65-111.33 24.17-146.85-31.17z" />
    <path fill="#c7102d" d="M262.44 160.5l-33.62 31.42c-51.33-44-64.41-43.49-113.25 5.76-18.75 18.89-38.46 37.2-54.45 58.27-16.3 21.51-12.3 45.21 6.82 63.65 18 17.41 43.68 23.07 60.75 5.18 27.41-28.74 57.05-30.85 99.22-18.39-30.28 25.09-55.47 52.51-86.32 69.89-40 22.51-91.59 5.84-119.91-31s-29.86-88.37.95-124.15c27.72-32.21 57.75-63.12 90.41-90.21 47.24-39.21 108.92-26.6 149.4 29.58z" />
</svg>
