<svg xmlns="http://www.w3.org/2000/svg" viewBox="0 0 266.56 274.53">
    <title>percent</title>
    <path fill="#c7102d" d="M0 66.15C0 28.7 25.9.01 63.75.01 102 .01 128.3 28.7 128.3 66.15c0 37.06-26.3 64.95-64.55 64.95C25.89 131.1 0 103.2 0 66.15zm104.39 0c0-26.3-16.73-45.82-40.64-45.82-23.56 0-39.85 19.52-39.85 45.82 0 25.1 16.34 45 39.85 45 23.9.02 40.64-19.9 40.64-45zM38.65 269.77L208.39 3.99h21.92L60.19 269.77H38.65zm100-60.17c0-37.46 25.9-66.14 63.75-66.14s64.15 28.69 64.15 66.14c0 37.06-26.3 64.95-64.15 64.95s-63.74-27.9-63.74-64.96zm104.39 0c0-26.3-16.74-45.82-40.64-45.82s-40.21 19.51-40.21 45.81c0 25.1 16.34 45 40.24 45s40.62-19.9 40.62-45z" />
</svg>
