<svg xmlns="http://www.w3.org/2000/svg" viewBox="0 0 38.89 38.89">
    <title>sett</title>
    <path fill="#c7102d" d="M20.28 38.89H18.6a1.31 1.31 0 0 0-.28-.09l-1.36-.08a.78.78 0 0 1-.81-.67q-.3-2.08-.54-4.17a.49.49 0 0 0-.36-.48c-.9-.35-1.79-.72-2.67-1.11a.44.44 0 0 0-.54.07 152.6 152.6 0 0 1-3.22 2.47.86.86 0 0 1-1.29 0 21 21 0 0 1-3.33-3.41.89.89 0 0 1 0-1.42c.81-1 1.63-2.09 2.42-3.15a.66.66 0 0 0 0-.54c-.33-.86-.72-1.69-1-2.55a.63.63 0 0 0-.55-.47c-1.23-.16-2.46-.32-3.7-.45a1 1 0 0 1-1.14-.91c0-.54-.06-1.08-.1-1.62a5.08 5.08 0 0 0-.13-.59v-.59c.06-.61.15-1.21.19-1.82a1.06 1.06 0 0 1 1.2-1.27c1.23-.13 2.47-.29 3.7-.45a.56.56 0 0 0 .48-.43c.33-.86.67-1.71 1.06-2.54a.55.55 0 0 0-.08-.66q-1.24-1.58-2.46-3.17a.76.76 0 0 1 0-1.11 19.81 19.81 0 0 1 3.63-3.66.8.8 0 0 1 1.08 0q1.62 1.3 3.3 2.55a.5.5 0 0 0 .41.07q1.4-.55 2.79-1.16a.57.57 0 0 0 .3-.36c.2-1.4.36-2.81.55-4.21a.79.79 0 0 1 .77-.72c.48 0 1-.06 1.45-.1a4.59 4.59 0 0 0 .51-.1h1.24c.58.06 1.15.15 1.73.19a.92.92 0 0 1 1 .89l.45 3.7a.8.8 0 0 0 .59.83 17.92 17.92 0 0 1 2.35 1 .59.59 0 0 0 .74-.07c1.05-.83 2.11-1.64 3.18-2.46a.81.81 0 0 1 1.18 0 19.59 19.59 0 0 1 3.49 3.49.82.82 0 0 1 0 1.18c-.83 1.1-1.68 2.19-2.51 3.3a.59.59 0 0 0 0 .49c.35.88.74 1.75 1.08 2.64a.56.56 0 0 0 .5.4c1.23.15 2.46.31 3.7.45a1 1 0 0 1 1.12 1.11c.05.37.12.74.19 1.12v2.39a6.7 6.7 0 0 0-.1.69c-.05 1.15-.3 1.43-1.21 1.52-1.24.12-2.47.29-3.7.46a.67.67 0 0 0-.46.3c-.42 1-.8 2-1.2 3.06l2.63 3.44a.82.82 0 0 1 0 1.19 18.56 18.56 0 0 1-3.51 3.42.85.85 0 0 1-1.32 0c-1-.81-2.09-1.62-3.15-2.42a.6.6 0 0 0-.49-.09c-.93.36-1.84.75-2.75 1.14a.46.46 0 0 0-.26.24c-.08.41-.14.84-.19 1.26-.13 1-.23 2-.37 3a.87.87 0 0 1-1 .81c-.51.06-1.03.16-1.55.23zm13.16-8.17c-.13-.19-.2-.3-.28-.4l-2.44-3.08a.84.84 0 0 1-.11-1 12.7 12.7 0 0 0 1.48-3.55.89.89 0 0 1 .79-.73c.77-.11 1.54-.19 2.31-.29l2.1-.29v-3.83c-1.42-.19-2.77-.39-4.12-.55a1 1 0 0 1-1.12-.89 10.28 10.28 0 0 0-1-2.56 1.9 1.9 0 0 1 .31-2.73c.74-.81 1.36-1.74 2.08-2.68-.84-.81-1.67-1.6-2.49-2.41a.34.34 0 0 0-.55 0c-1.05.83-2.12 1.63-3.19 2.45a.75.75 0 0 1-.89.15 17.27 17.27 0 0 0-3.81-1.61.9.9 0 0 1-.51-.54 8 8 0 0 1-.2-1.3c-.12-1-.23-1.95-.38-2.91a.53.53 0 0 0-.36-.36H17.8a.39.39 0 0 0-.27.26q-.29 2-.54 4a.88.88 0 0 1-.76.93 12.59 12.59 0 0 0-3.43 1.42.92.92 0 0 1-1.17-.09c-1-.81-2.07-1.6-3.11-2.41a.38.38 0 0 0-.6 0c-.7.74-1.43 1.46-2.2 2.17a.37.37 0 0 0 0 .59c.83 1 1.63 2.13 2.45 3.19a.86.86 0 0 1 .09 1.05 12.92 12.92 0 0 0-1.47 3.56.89.89 0 0 1-.76.7c-.29.05-.58.06-.87.1l-3.5.46v3.81l1 .12c1.06.14 2.06.25 3.15.42a1 1 0 0 1 1 .8c.42 1.12.87 2.23 1.36 3.32a1 1 0 0 1-.13 1.4c-.77 1-1.53 2-2.32 3a.36.36 0 0 0 0 .59c.71.7 1.43 1.41 2.12 2.13a.41.41 0 0 0 .67 0c1-.81 2.07-1.6 3.11-2.4a.8.8 0 0 1 1-.14 14.5 14.5 0 0 0 3.76 1.56.76.76 0 0 1 .58.69c.19 1.35.38 2.69.52 4a.38.38 0 0 0 .47.42h3a.47.47 0 0 0 .53-.54c.14-1.23.3-2.47.45-3.7a1.16 1.16 0 0 1 1-1 27.18 27.18 0 0 0 3-1.3 1.05 1.05 0 0 1 1.53.12l3.26 2.59z" />
    <path fill="#c7102d" d="M27.09 19.46a7.64 7.64 0 1 1-7.24-7.66 7.63 7.63 0 0 1 7.24 7.66zm-1.48 0a6.16 6.16 0 1 0-6.19 6.16 6.13 6.13 0 0 0 6.19-6.17z" />
</svg>
