<svg data-name="Слой 1" xmlns="http://www.w3.org/2000/svg" viewBox="0 0 392 371.28">
    <title>suitcase</title>
    <path fill="#c7102d" d="M358.64 43.42H271V30c0-16.59-13.36-30-30.88-30H151c-16.72 0-30.88 13.41-30.88 30v13.42H33.36C15 43.42 0 57.66 0 75v264.69c0 17.35 15 31.6 33.36 31.6h325.28C377 371.28 392 357 392 339.69V75c0-17.35-15-31.6-33.36-31.6zM136.8 30c0-7.88 6.64-14.24 15-14.24h88.4c8.32 0 15 6.29 15 14.24v13.42H136.8V30zM33.36 59.25h325.28c9.2 0 16.72 7.12 16.72 15.84v73.8L237.84 226c-6-16.44-22.56-28.41-41.84-28.41s-35.92 12-41.84 28.57L16.72 148.82V75c0-8.64 7.44-15.76 16.64-15.76zm190.16 180.11c0 15-12.48 26.82-27.52 26.82s-27.52-11.82-27.52-26.82S181 212.54 196 212.54s27.52 11.82 27.52 26.82zm135.12 116.09H33.36c-9.2 0-16.72-7.12-16.72-15.84V167.15L152 243.23c2.08 21.14 21.2 38 44 38s42-17 44-38.19l135.28-75.85v172.5c0 8.71-7.44 15.76-16.64 15.76zm0 0" />
</svg>
